<svg width="982" height="219" viewBox="0 0 982 219" fill="none" xmlns="http://www.w3.org/2000/svg">
<path d="M925.5 76C966.5 76 982 106.5 982 132V219H949L948 159C948 144.5 940.7 132 927.5 132C913.5 132 907 144 907 159C907 172.2 907.333 204.5 907 219H874V132C874 113.5 884.3 76 925.5 76Z" fill="#1A5263"/>
<path d="M886 219H827V36C827 21.5 834.8 0 856 0C877.2 0 886 21 886 39V219Z" fill="#2C6170"/>
<path d="M98.5 76C139.5 76 155 106.5 155 132V219H122L121 159C121 144.5 113.7 132 100.5 132C86.5 132 80 144 80 159C80 172.2 80.3333 204.5 80 219H47V132C47 113.5 57.3 76 98.5 76Z" fill="#1A5263"/>
<path d="M59 219H0V36C0 21.5 7.8 0 29 0C50.2 0 59 21 59 39V219Z" fill="#2C6170"/>
<path d="M591.5 76C632.5 76 648 106.5 648 132V219H624L623 159C623 144.5 615.7 132 602.5 132C588.5 132 582 144 582 159C582 172.2 582.333 204.5 582 219H540V132C540 113.5 550.3 76 591.5 76Z" fill="#1A5263"/>
<path d="M562 219H503V114C503 99.5 510.8 78 532 78C553.2 78 562 99 562 117V219Z" fill="#2C6170"/>
<path d="M422.5 76C463.5 76 479 106.5 479 132V219H455L454 159C454 144.5 446.7 132 433.5 132C419.5 132 413 144 413 159C413 172.2 413.333 204.5 413 219H371V132C371 113.5 381.3 76 422.5 76Z" fill="#1A5263"/>
<path d="M393 219H334V114C334 99.5 341.8 78 363 78C384.2 78 393 99 393 117V219Z" fill="#2C6170"/>
<path d="M803 219H750L752 166C752 151.5 751.8 132 773 132C794.2 132 803 153 803 171V219Z" fill="#2C6170"/>
<path d="M723.5 76C764.5 76 780 106.5 780 132V219H672V132C672 108 682.3 76 723.5 76ZM725.5 128C711.5 128 705 143 705 160C705 177 710.5 192.5 725.5 192.5C740.5 192.5 746 177 746 160C746 143 738.7 128 725.5 128Z" fill="#1A5263"/>
<path d="M310 219H257L259 166C259 151.5 258.8 132 280 132C301.2 132 310 153 310 171V219Z" fill="#2C6170"/>
<path d="M230.5 76C271.5 76 287 106.5 287 132V219H179V132C179 108 189.3 76 230.5 76ZM232.5 128C218.5 128 212 143 212 160C212 177 217.5 192.5 232.5 192.5C247.5 192.5 253 177 253 160C253 143 245.7 128 232.5 128Z" fill="#1A5263"/>
</svg>
