<svg width="800" height="800" viewBox="0 0 800 800" fill="none" xmlns="http://www.w3.org/2000/svg">
<path d="M341.55 526.532C90.7393 179.898 702.83 114.511 470.148 530" stroke="#5C8590" stroke-opacity="0.9" stroke-width="32" stroke-linecap="round" stroke-linejoin="round"/>
<path d="M447.854 589.572C417.428 607.454 394.154 602.794 366.698 585.434" stroke="#5C8590" stroke-opacity="0.9" stroke-width="32" stroke-linecap="round" stroke-linejoin="round"/>
<path d="M447.862 647.894C418.764 659.41 383.922 664.454 359.542 642.226" stroke="#5C8590" stroke-opacity="0.9" stroke-width="32" stroke-linecap="round" stroke-linejoin="round"/>
<path opacity="0.503384" d="M401.218 528.046C411.244 512.236 426.28 355.09 391.478 361.012C355.184 367.194 366.344 429.274 401.218 434.218C461.23 442.732 462.178 344.164 425.558 383.116C409.628 400.064 404.014 423.054 389.854 441.126" stroke="#41717E" stroke-opacity="0.9" stroke-width="32" stroke-linecap="round" stroke-linejoin="round"/>
<path opacity="0.503384" d="M432.482 180.141C436.02 168.16 434.832 155.954 436.972 144" stroke="#41717E" stroke-opacity="0.9" stroke-width="32" stroke-linecap="round" stroke-linejoin="round"/>
<path opacity="0.503384" d="M292.708 211.118C287.26 203.978 283.194 195.601 278.386 187.885" stroke="#41717E" stroke-opacity="0.9" stroke-width="32" stroke-linecap="round" stroke-linejoin="round"/>
<path opacity="0.503384" d="M225.87 347.938C217.59 345.622 209.41 342.32 202 337.612" stroke="#41717E" stroke-opacity="0.9" stroke-width="32" stroke-linecap="round" stroke-linejoin="round"/>
<path opacity="0.503384" d="M543.34 242.096C550.698 238.186 557.78 233.704 564.822 229.19" stroke="#41717E" stroke-opacity="0.9" stroke-width="32" stroke-linecap="round" stroke-linejoin="round"/>
<path opacity="0.503384" d="M566.018 382.902C576.654 384.358 586.77 381.81 597.048 379.664" stroke="#41717E" stroke-opacity="0.9" stroke-width="32" stroke-linecap="round" stroke-linejoin="round"/>
</svg>
